<?xml version="1.0" encoding="UTF-8" standalone="no"?>
<!DOCTYPE svg PUBLIC "-//W3C//DTD SVG 1.1//EN"
 "http://www.w3.org/Graphics/SVG/1.1/DTD/svg11.dtd">
<!-- Generated by graphviz version 2.40.1 (20161225.0304)
 -->
<!-- Title: dependencies Pages: 1 -->
<svg width="508pt" height="284pt"
 viewBox="0.00 0.00 508.00 284.00" xmlns="http://www.w3.org/2000/svg" xmlns:xlink="http://www.w3.org/1999/xlink">
<g id="graph0" class="graph" transform="scale(1 1) rotate(0) translate(4 280)">
<title>dependencies</title>
<polygon fill="#ffffff" stroke="transparent" points="-4,4 -4,-280 504,-280 504,4 -4,4"/>
<text text-anchor="start" x="229.0091" y="-42.4" font-family="sans-serif" font-weight="bold" font-size="14.00" fill="#000000">Legend</text>
<polygon fill="#ffffb3" stroke="transparent" points="16,-10 16,-30 36,-30 36,-10 16,-10"/>
<text text-anchor="start" x="39.629" y="-15.4" font-family="sans-serif" font-size="14.00" fill="#000000"> &#160;Declarations</text>
<polygon fill="#8dd3c7" stroke="transparent" points="129,-10 129,-30 149,-30 149,-10 129,-10"/>
<text text-anchor="start" x="152.7251" y="-15.4" font-family="sans-serif" font-size="14.00" fill="#000000"> &#160;Module</text>
<polygon fill="#80b1d3" stroke="transparent" points="215,-10 215,-30 235,-30 235,-10 215,-10"/>
<text text-anchor="start" x="238.7812" y="-15.4" font-family="sans-serif" font-size="14.00" fill="#000000"> &#160;Bootstrap</text>
<polygon fill="#fdb462" stroke="transparent" points="312,-10 312,-30 332,-30 332,-10 312,-10"/>
<text text-anchor="start" x="335.6732" y="-15.4" font-family="sans-serif" font-size="14.00" fill="#000000"> &#160;Providers</text>
<polygon fill="#fb8072" stroke="transparent" points="408,-10 408,-30 428,-30 428,-10 408,-10"/>
<text text-anchor="start" x="431.7258" y="-15.4" font-family="sans-serif" font-size="14.00" fill="#000000"> &#160;Exports</text>
<g id="clust1" class="cluster">
<title>cluster_AppModule</title>
<polygon fill="none" stroke="#000000" stroke-dasharray="1,5" points="8,-70 8,-268 148,-268 148,-70 8,-70"/>
</g>
<g id="clust2" class="cluster">
<title>cluster_AppModule_declarations</title>
<polygon fill="none" stroke="#000000" points="17,-78 17,-130 139,-130 139,-78 17,-78"/>
</g>
<g id="clust6" class="cluster">
<title>cluster_AppModule_bootstrap</title>
<polygon fill="none" stroke="#000000" points="16,-208 16,-260 140,-260 140,-208 16,-208"/>
</g>
<g id="clust8" class="cluster">
<title>cluster_DatetimePopupModule</title>
<polygon fill="none" stroke="#000000" stroke-dasharray="1,5" points="156,-70 156,-268 492,-268 492,-70 156,-70"/>
</g>
<g id="clust9" class="cluster">
<title>cluster_DatetimePopupModule_declarations</title>
<polygon fill="none" stroke="#000000" points="164,-78 164,-130 484,-130 484,-78 164,-78"/>
</g>
<g id="clust13" class="cluster">
<title>cluster_DatetimePopupModule_exports</title>
<polygon fill="none" stroke="#000000" points="230,-208 230,-260 418,-260 418,-208 230,-208"/>
</g>
<!-- AppComponent -->
<g id="node1" class="node">
<title>AppComponent</title>
<polygon fill="#ffffb3" stroke="#000000" points="130.9399,-122 25.0601,-122 25.0601,-86 130.9399,-86 130.9399,-122"/>
<text text-anchor="middle" x="78" y="-99.8" font-family="Times,serif" font-size="14.00" fill="#000000">AppComponent</text>
</g>
<!-- AppModule -->
<g id="node2" class="node">
<title>AppModule</title>
<polygon fill="#8dd3c7" stroke="#000000" points="119.6571,-187 116.6571,-191 95.6571,-191 92.6571,-187 36.3429,-187 36.3429,-151 119.6571,-151 119.6571,-187"/>
<text text-anchor="middle" x="78" y="-164.8" font-family="Times,serif" font-size="14.00" fill="#000000">AppModule</text>
</g>
<!-- AppComponent&#45;&gt;AppModule -->
<g id="edge1" class="edge">
<title>AppComponent&#45;&gt;AppModule</title>
<path fill="none" stroke="#000000" d="M78,-122.1061C78,-122.1061 78,-140.991 78,-140.991"/>
<polygon fill="#000000" stroke="#000000" points="74.5001,-140.9909 78,-150.991 81.5001,-140.991 74.5001,-140.9909"/>
</g>
<!-- AppComponent  -->
<g id="node3" class="node">
<title>AppComponent </title>
<polygon fill="#80b1d3" stroke="#000000" points="132.439,-252 23.561,-252 23.561,-216 132.439,-216 132.439,-252"/>
<text text-anchor="middle" x="78" y="-229.8" font-family="Times,serif" font-size="14.00" fill="#000000">AppComponent </text>
</g>
<!-- AppModule&#45;&gt;AppComponent  -->
<g id="edge2" class="edge">
<title>AppModule&#45;&gt;AppComponent </title>
<path fill="none" stroke="#000000" stroke-dasharray="1,5" d="M78,-187.1061C78,-187.1061 78,-205.991 78,-205.991"/>
<polygon fill="#000000" stroke="#000000" points="74.5001,-205.9909 78,-215.991 81.5001,-205.991 74.5001,-205.9909"/>
</g>
<!-- DatetimePopupComponent -->
<g id="node4" class="node">
<title>DatetimePopupComponent</title>
<polygon fill="#ffffb3" stroke="#000000" points="476.4283,-122 307.5717,-122 307.5717,-86 476.4283,-86 476.4283,-122"/>
<text text-anchor="middle" x="392" y="-99.8" font-family="Times,serif" font-size="14.00" fill="#000000">DatetimePopupComponent</text>
</g>
<!-- DatetimePopupModule -->
<g id="node6" class="node">
<title>DatetimePopupModule</title>
<polygon fill="#8dd3c7" stroke="#000000" points="397.1456,-187 394.1456,-191 373.1456,-191 370.1456,-187 250.8544,-187 250.8544,-151 397.1456,-151 397.1456,-187"/>
<text text-anchor="middle" x="324" y="-164.8" font-family="Times,serif" font-size="14.00" fill="#000000">DatetimePopupModule</text>
</g>
<!-- DatetimePopupComponent&#45;&gt;DatetimePopupModule -->
<g id="edge3" class="edge">
<title>DatetimePopupComponent&#45;&gt;DatetimePopupModule</title>
<path fill="none" stroke="#000000" d="M352.5544,-122.1061C352.5544,-122.1061 352.5544,-140.991 352.5544,-140.991"/>
<polygon fill="#000000" stroke="#000000" points="349.0544,-140.9909 352.5544,-150.991 356.0544,-140.991 349.0544,-140.9909"/>
</g>
<!-- OffClickDirective -->
<g id="node5" class="node">
<title>OffClickDirective</title>
<polygon fill="#ffffb3" stroke="#000000" points="289.8431,-122 172.1569,-122 172.1569,-86 289.8431,-86 289.8431,-122"/>
<text text-anchor="middle" x="231" y="-99.8" font-family="Times,serif" font-size="14.00" fill="#000000">OffClickDirective</text>
</g>
<!-- OffClickDirective&#45;&gt;DatetimePopupModule -->
<g id="edge4" class="edge">
<title>OffClickDirective&#45;&gt;DatetimePopupModule</title>
<path fill="none" stroke="#000000" d="M270.2995,-122.1061C270.2995,-122.1061 270.2995,-140.991 270.2995,-140.991"/>
<polygon fill="#000000" stroke="#000000" points="266.7995,-140.9909 270.2995,-150.991 273.7995,-140.991 266.7995,-140.9909"/>
</g>
<!-- DatetimePopupComponent  -->
<g id="node7" class="node">
<title>DatetimePopupComponent </title>
<polygon fill="#fb8072" stroke="#000000" points="409.9278,-252 238.0722,-252 238.0722,-216 409.9278,-216 409.9278,-252"/>
<text text-anchor="middle" x="324" y="-229.8" font-family="Times,serif" font-size="14.00" fill="#000000">DatetimePopupComponent </text>
</g>
<!-- DatetimePopupModule&#45;&gt;DatetimePopupComponent  -->
<g id="edge5" class="edge">
<title>DatetimePopupModule&#45;&gt;DatetimePopupComponent </title>
<path fill="none" stroke="#000000" stroke-dasharray="5,2" d="M324,-187.1061C324,-187.1061 324,-205.991 324,-205.991"/>
<polygon fill="#000000" stroke="#000000" points="320.5001,-205.9909 324,-215.991 327.5001,-205.991 320.5001,-205.9909"/>
</g>
</g>
</svg>
