<?xml version="1.0" encoding="UTF-8" standalone="no"?>
<!DOCTYPE svg PUBLIC "-//W3C//DTD SVG 1.1//EN"
 "http://www.w3.org/Graphics/SVG/1.1/DTD/svg11.dtd">
<!-- Generated by graphviz version 2.40.1 (20161225.0304)
 -->
<!-- Title: dependencies Pages: 1 -->
<svg width="504pt" height="284pt"
 viewBox="0.00 0.00 504.00 284.00" xmlns="http://www.w3.org/2000/svg" xmlns:xlink="http://www.w3.org/1999/xlink">
<g id="graph0" class="graph" transform="scale(1 1) rotate(0) translate(4 280)">
<title>dependencies</title>
<polygon fill="#ffffff" stroke="transparent" points="-4,4 -4,-280 500,-280 500,4 -4,4"/>
<text text-anchor="start" x="227.0091" y="-42.4" font-family="sans-serif" font-weight="bold" font-size="14.00" fill="#000000">Legend</text>
<polygon fill="#ffffb3" stroke="transparent" points="14,-10 14,-30 34,-30 34,-10 14,-10"/>
<text text-anchor="start" x="37.629" y="-15.4" font-family="sans-serif" font-size="14.00" fill="#000000"> &#160;Declarations</text>
<polygon fill="#8dd3c7" stroke="transparent" points="127,-10 127,-30 147,-30 147,-10 127,-10"/>
<text text-anchor="start" x="150.7251" y="-15.4" font-family="sans-serif" font-size="14.00" fill="#000000"> &#160;Module</text>
<polygon fill="#80b1d3" stroke="transparent" points="213,-10 213,-30 233,-30 233,-10 213,-10"/>
<text text-anchor="start" x="236.7812" y="-15.4" font-family="sans-serif" font-size="14.00" fill="#000000"> &#160;Bootstrap</text>
<polygon fill="#fdb462" stroke="transparent" points="310,-10 310,-30 330,-30 330,-10 310,-10"/>
<text text-anchor="start" x="333.6732" y="-15.4" font-family="sans-serif" font-size="14.00" fill="#000000"> &#160;Providers</text>
<polygon fill="#fb8072" stroke="transparent" points="406,-10 406,-30 426,-30 426,-10 406,-10"/>
<text text-anchor="start" x="429.7258" y="-15.4" font-family="sans-serif" font-size="14.00" fill="#000000"> &#160;Exports</text>
<g id="clust1" class="cluster">
<title>cluster_DatetimePopupModule</title>
<polygon fill="none" stroke="#000000" stroke-dasharray="1,5" points="80,-70 80,-268 416,-268 416,-70 80,-70"/>
</g>
<g id="clust2" class="cluster">
<title>cluster_DatetimePopupModule_declarations</title>
<polygon fill="none" stroke="#000000" points="88,-78 88,-130 408,-130 408,-78 88,-78"/>
</g>
<g id="clust6" class="cluster">
<title>cluster_DatetimePopupModule_exports</title>
<polygon fill="none" stroke="#000000" points="154,-208 154,-260 342,-260 342,-208 154,-208"/>
</g>
<!-- DatetimePopupComponent -->
<g id="node1" class="node">
<title>DatetimePopupComponent</title>
<polygon fill="#ffffb3" stroke="#000000" points="400.4283,-122 231.5717,-122 231.5717,-86 400.4283,-86 400.4283,-122"/>
<text text-anchor="middle" x="316" y="-99.8" font-family="Times,serif" font-size="14.00" fill="#000000">DatetimePopupComponent</text>
</g>
<!-- DatetimePopupModule -->
<g id="node3" class="node">
<title>DatetimePopupModule</title>
<polygon fill="#8dd3c7" stroke="#000000" points="321.1456,-187 318.1456,-191 297.1456,-191 294.1456,-187 174.8544,-187 174.8544,-151 321.1456,-151 321.1456,-187"/>
<text text-anchor="middle" x="248" y="-164.8" font-family="Times,serif" font-size="14.00" fill="#000000">DatetimePopupModule</text>
</g>
<!-- DatetimePopupComponent&#45;&gt;DatetimePopupModule -->
<g id="edge1" class="edge">
<title>DatetimePopupComponent&#45;&gt;DatetimePopupModule</title>
<path fill="none" stroke="#000000" d="M276.5544,-122.1061C276.5544,-122.1061 276.5544,-140.991 276.5544,-140.991"/>
<polygon fill="#000000" stroke="#000000" points="273.0544,-140.9909 276.5544,-150.991 280.0544,-140.991 273.0544,-140.9909"/>
</g>
<!-- OffClickDirective -->
<g id="node2" class="node">
<title>OffClickDirective</title>
<polygon fill="#ffffb3" stroke="#000000" points="213.8431,-122 96.1569,-122 96.1569,-86 213.8431,-86 213.8431,-122"/>
<text text-anchor="middle" x="155" y="-99.8" font-family="Times,serif" font-size="14.00" fill="#000000">OffClickDirective</text>
</g>
<!-- OffClickDirective&#45;&gt;DatetimePopupModule -->
<g id="edge2" class="edge">
<title>OffClickDirective&#45;&gt;DatetimePopupModule</title>
<path fill="none" stroke="#000000" d="M194.2995,-122.1061C194.2995,-122.1061 194.2995,-140.991 194.2995,-140.991"/>
<polygon fill="#000000" stroke="#000000" points="190.7995,-140.9909 194.2995,-150.991 197.7995,-140.991 190.7995,-140.9909"/>
</g>
<!-- DatetimePopupComponent  -->
<g id="node4" class="node">
<title>DatetimePopupComponent </title>
<polygon fill="#fb8072" stroke="#000000" points="333.9278,-252 162.0722,-252 162.0722,-216 333.9278,-216 333.9278,-252"/>
<text text-anchor="middle" x="248" y="-229.8" font-family="Times,serif" font-size="14.00" fill="#000000">DatetimePopupComponent </text>
</g>
<!-- DatetimePopupModule&#45;&gt;DatetimePopupComponent  -->
<g id="edge3" class="edge">
<title>DatetimePopupModule&#45;&gt;DatetimePopupComponent </title>
<path fill="none" stroke="#000000" stroke-dasharray="5,2" d="M248,-187.1061C248,-187.1061 248,-205.991 248,-205.991"/>
<polygon fill="#000000" stroke="#000000" points="244.5001,-205.9909 248,-215.991 251.5001,-205.991 244.5001,-205.9909"/>
</g>
</g>
</svg>
